<?xml version="1.0" standalone="no"?>
<!DOCTYPE svg PUBLIC "-//W3C//DTD SVG 20010904//EN"
 "http://www.w3.org/TR/2001/REC-SVG-20010904/DTD/svg10.dtd">
<svg version="1.0" xmlns="http://www.w3.org/2000/svg"
 width="225.000000pt" height="225.000000pt" viewBox="0 0 225.000000 225.000000"
 preserveAspectRatio="xMidYMid meet">

<g transform="translate(0.000000,225.000000) scale(0.100000,-0.100000)"
fill="#000000" stroke="none">
<path d="M370 1200 l0 -250 295 0 295 0 0 250 0 250 -295 0 -295 0 0 -250z
m510 155 c0 -33 -2 -35 -35 -35 -33 0 -35 2 -35 35 0 33 2 35 35 35 33 0 35
-2 35 -35z m-304 -30 c3 -19 10 -33 14 -30 5 3 6 -3 4 -12 -2 -10 2 -40 9 -67
l13 -48 23 96 23 96 54 0 54 0 0 -156 0 -155 -37 3 -38 3 -5 80 c-4 71 -6 76
-13 42 -4 -20 -5 -43 -1 -50 4 -7 3 -8 -2 -4 -5 5 -14 -7 -20 -30 -9 -32 -15
-38 -40 -41 -29 -3 -29 -3 -54 95 l-25 98 -3 -97 -3 -98 -34 0 -35 0 0 155 0
155 55 0 c54 0 54 0 61 -35z m304 -161 l0 -114 -35 0 -35 0 0 118 0 118 35 -4
35 -4 0 -114z"/>
<path d="M1040 1210 l0 -150 80 0 c78 0 80 1 80 24 0 23 -5 25 -47 28 l-48 3
-3 123 -3 122 -29 0 -30 0 0 -150z"/>
<path d="M1254 1266 c-27 -20 -28 -166 -1 -193 25 -25 119 -25 144 0 27 27 26
173 -1 193 -26 18 -116 18 -142 0z m102 -73 c8 -45 -5 -87 -30 -91 -24 -5 -36
14 -36 60 0 51 9 68 36 68 19 0 24 -7 30 -37z"/>
<path d="M1476 1265 c-22 -22 -30 -112 -14 -160 11 -34 18 -40 45 -43 18 -2
42 2 54 9 20 10 21 9 16 -12 -4 -13 -7 -27 -7 -31 0 -5 -22 -8 -50 -8 -47 0
-50 -2 -50 -25 0 -24 2 -25 63 -25 96 0 101 9 105 176 l4 134 -31 0 c-22 0
-31 -5 -31 -17 0 -15 -1 -15 -18 0 -23 21 -66 22 -86 2z m95 -62 c6 -15 8 -42
4 -60 -5 -27 -11 -33 -30 -33 -23 0 -25 3 -25 53 0 30 3 57 7 60 14 15 34 6
44 -20z"/>
<path d="M1699 1259 c-19 -19 -21 -30 -17 -100 2 -43 8 -83 14 -89 17 -17 106
-23 134 -8 30 16 42 64 34 136 -7 68 -22 82 -90 82 -42 0 -59 -5 -75 -21z m99
-91 c-3 -60 -4 -63 -28 -63 -23 0 -25 4 -28 49 -4 63 2 76 33 76 25 0 26 -1
23 -62z"/>
<path d="M391 848 c2 -30 2 -30 6 -6 2 15 12 29 21 31 12 3 10 5 -5 6 -20 1
-23 -4 -22 -31z"/>
<path d="M451 864 c0 -11 3 -14 6 -6 3 7 2 16 -1 19 -3 4 -6 -2 -5 -13z"/>
<path d="M532 873 c9 -2 19 -16 21 -31 4 -24 4 -24 6 6 1 27 -2 32 -21 31 -16
-1 -18 -3 -6 -6z"/>
<path d="M592 850 c0 -19 2 -27 5 -17 2 9 2 25 0 35 -3 9 -5 1 -5 -18z"/>
<path d="M642 850 c0 -19 2 -27 5 -17 2 9 2 25 0 35 -3 9 -5 1 -5 -18z"/>
<path d="M718 873 c6 -2 18 -2 25 0 6 3 1 5 -13 5 -14 0 -19 -2 -12 -5z"/>
<path d="M772 850 c0 -19 2 -27 5 -17 2 9 2 25 0 35 -3 9 -5 1 -5 -18z"/>
<path d="M888 873 c7 -3 16 -2 19 1 4 3 -2 6 -13 5 -11 0 -14 -3 -6 -6z"/>
<path d="M978 850 c2 -16 5 -30 7 -30 2 0 5 14 7 30 3 19 0 30 -7 30 -7 0 -10
-11 -7 -30z"/>
<path d="M1032 850 c0 -19 2 -27 5 -17 2 9 2 25 0 35 -3 9 -5 1 -5 -18z"/>
<path d="M1062 850 c0 -19 2 -27 5 -17 2 9 2 25 0 35 -3 9 -5 1 -5 -18z"/>
<path d="M1102 850 c0 -19 2 -27 5 -17 2 9 2 25 0 35 -3 9 -5 1 -5 -18z"/>
<path d="M1140 871 c0 -6 4 -13 10 -16 6 -3 7 1 4 9 -7 18 -14 21 -14 7z"/>
<path d="M1168 855 c-3 -14 -1 -28 3 -31 5 -3 9 9 9 25 0 38 -6 40 -12 6z"/>
<path d="M1211 865 c0 -11 9 -26 22 -34 16 -9 19 -10 10 -1 -9 9 -9 19 -2 34
9 20 9 20 -5 3 -14 -18 -14 -18 -19 0 -4 16 -5 16 -6 -2z"/>
<path d="M1311 850 c0 -27 2 -30 8 -15 8 19 8 19 19 0 6 -11 11 -15 11 -10 1
6 -8 21 -19 35 l-20 25 1 -35z"/>
<path d="M1384 866 c-3 -8 -4 -23 -1 -33 3 -12 5 -9 6 9 1 16 8 28 19 31 16 4
16 5 -1 6 -10 0 -20 -5 -23 -13z"/>
<path d="M811 854 c0 -11 3 -14 6 -6 3 7 2 16 -1 19 -3 4 -6 -2 -5 -13z"/>
<path d="M460 830 c0 -5 5 -10 11 -10 5 0 7 5 4 10 -3 6 -8 10 -11 10 -2 0 -4
-4 -4 -10z"/>
</g>
</svg>
