<?xml version="1.0" standalone="no"?>
<!DOCTYPE svg PUBLIC "-//W3C//DTD SVG 20010904//EN"
 "http://www.w3.org/TR/2001/REC-SVG-20010904/DTD/svg10.dtd">
<svg version="1.0" xmlns="http://www.w3.org/2000/svg"
 width="224.000000pt" height="225.000000pt" viewBox="0 0 224.000000 225.000000"
 preserveAspectRatio="xMidYMid meet">

<g transform="translate(0.000000,225.000000) scale(0.100000,-0.100000)"
fill="#000000" stroke="none">
<path d="M995 2001 c-50 -34 -245 -172 -435 -309 -268 -192 -349 -255 -362
-282 -16 -32 -18 -81 -18 -568 0 -576 0 -571 55 -622 l27 -25 844 -3 c939 -3
896 -6 928 63 15 30 16 97 14 589 l-3 556 -35 34 c-19 19 -219 166 -443 326
-315 226 -417 293 -446 297 -32 4 -47 -2 -126 -56z m477 -456 l337 -240 0
-437 1 -438 -170 0 -169 0 -3 310 -3 310 -38 37 -37 38 -280 0 -280 0 -27 -28
-28 -27 -5 -318 -5 -317 -172 -3 -173 -2 1 432 0 433 347 248 c191 136 352
246 357 245 6 -2 162 -111 347 -243z m-242 -885 l0 -230 -115 0 -115 0 0 230
0 230 115 0 115 0 0 -230z"/>
</g>
</svg>
